<svg width="36" height="46" viewBox="0 0 36 46" fill="none" xmlns="http://www.w3.org/2000/svg">
<path fill-rule="evenodd" clip-rule="evenodd" d="M18 46C18 46 0 36.583 0 18C0 8.059 8.059 0 18 0C27.941 0 36 8.059 36 18C36 36.583 18 46 18 46ZM18 2C9.178 2 2 9.178 2 18C2 32.758 14.462 41.501 18.003 43.687C21.547 41.51 34 32.805 34 18C34 9.178 26.822 2 18 2ZM18 27C13.029 27 9 22.971 9 18C9 13.029 13.029 9 18 9C22.971 9 27 13.029 27 18C27 22.971 22.971 27 18 27ZM18 11C14.134 11 11 14.134 11 18C11 21.866 14.134 25 18 25C21.866 25 25 21.866 25 18C25 14.134 21.866 11 18 11Z" fill="white"/>
</svg>
