<svg width="37" height="56" viewBox="0 0 37 56" fill="none" xmlns="http://www.w3.org/2000/svg">
<path d="M36.099 47.5902C35.7917 46.0772 35.1402 44.208 34.2611 42.3245C33.6253 40.9599 31.3798 36.4478 29.172 35.6434C28.4636 35.3853 27.9036 35.5242 27.5606 35.684L23.55 37.5508C23.4824 37.5823 23.3039 37.5817 23.0194 37.4781C21.3879 36.8836 18.5864 33.8174 16.389 29.1046C13.4604 22.8157 13.76 18.5471 14.5287 18.189L18.5356 16.3209C18.8811 16.1599 19.3477 15.8207 19.6052 15.1141C20.412 12.9053 18.4 8.28293 17.7642 6.91837C17.1302 5.55447 14.8865 1.04305 12.675 0.237285C11.9685 -0.0201573 11.4092 0.116974 11.0637 0.277941L3.04376 4.01401C0.675762 5.11561 0.0726125 8.73942 1.25256 14.784C2.27663 20.0297 4.54098 26.5671 7.62548 33.1871C13.0968 44.9299 19.7055 53.8878 24.0704 55.4761C25.1568 55.872 26.1462 55.8666 27.0151 55.4619L35.035 51.7258C36.7702 50.9175 36.2647 48.4135 36.099 47.5902ZM25.7482 52.7428C25.6587 52.7829 25.4424 52.7831 25.0974 52.6574C22.1261 51.5748 15.9462 43.9392 10.3447 31.9203C7.35935 25.5131 5.17712 19.2239 4.19796 14.2087C3.0942 8.55986 4.00521 6.87543 4.31069 6.73312L11.8599 3.21635C12.4795 3.75807 13.7636 5.43161 15.045 8.18511C16.3264 10.9386 16.7842 12.9971 16.8004 13.8199L13.2618 15.4699C9.57358 17.188 10.8881 24.3979 13.6698 30.3713C16.0567 35.4941 19.2469 39.2964 21.9924 40.2968C23.2752 40.7642 24.2361 40.5405 24.817 40.2699L28.3568 38.6224C28.9764 39.1642 30.258 40.8389 31.5419 43.5912C32.824 46.3429 33.2812 48.4032 33.2973 49.226L25.7482 52.7428Z" fill="white"/>
</svg>
